# AST/ASF file generated using VICON BodyLanguage
# -----------------------------------------------
:version 1.10
:name VICON
:units
  mass 1.0
  length 0.45
  angle deg
:documentation
   .ast/.asf automatically generated from VICON data using
   VICON BodyBuilder and BodyLanguage model FoxedUp or BRILLIANT.MOD
:root
   order TX TY TZ RX RY RZ
   axis XYZ
   position 0 0 0  
   orientation 0 0 0 
:bonedata
  begin
     id 1 
     name lhipjoint
     direction 0.660183 -0.676772 0.325788 
     length 2.75133 
     axis 0 0 0  XYZ
  end
  begin
     id 2 
     name lfemur
     direction 0.34202 -0.939693 0  
     length 7.70317  
     axis 0 0 20  XYZ
    dof rx ry rz
    limits (-160.0 20.0)
           (-70.0 70.0)
           (-60.0 70.0)
  end
  begin
     id 3 
     name ltibia
     direction 0.342105 -0.939662 0   
     length 7.18701   
     axis 0 0 20   XYZ
    dof rx
    limits (-10.0 170.0)
  end
  begin
     id 4 
     name lfoot
     direction 0.14163 -0.389126 0.910232   
     length 2.41719   
     axis -90 7.62852e-016 20   XYZ
    dof rx rz
    limits (-45.0 90.0)
           (-70.0 20.0)
  end
  begin
     id 5 
     name ltoes
     direction 1.53533e-011 -4.21926e-011 1   
     length 1.18611   
     axis -90 7.62852e-016 20   XYZ
    dof rx
    limits (-90.0 20.0)
  end
  begin
     id 6 
     name rhipjoint
     direction -0.6658 -0.67229 0.323631   
     length 2.76968  
     axis 0 0 0  XYZ 
  end
  begin
     id 7 
     name rfemur
     direction -0.34202 -0.939693 0   
     length 7.92547   
     axis 0 0 -20   XYZ
    dof rx ry rz
    limits (-160.0 20.0)
           (-70.0 70.0)
           (-70.0 60.0)
  end
  begin
     id 8 
     name rtibia
     direction -0.342022 -0.939692 0   
     length 7.22641   
     axis 0 0 -20   XYZ
    dof rx
    limits (-10.0 170.0)
 end
 begin
     id 9 
     name rfoot
     direction -0.105675 -0.29034 0.951071   
     length 2.48149  
     axis -90 -7.62852e-016 -20   XYZ
    dof rx rz
    limits (-45.0 90.0)
           (-20.0 70.0)
  end
  begin
     id 10 
     name rtoes
     direction -1.5349e-011 -4.21859e-011 1   
     length 1.23343   
     axis -90 -7.62852e-016 -20   XYZ
    dof rx
    limits (-90.0 20.0)
  end
  begin
     id 11 
     name lowerback
     direction 0.0104173 0.993624 -0.112266   
     length 2.00527   
     axis 0 0 0   XYZ
    dof rx ry rz
    limits (-20.0 45.0)
           (-30.0 30.0)
           (-30.0 30.0)
  end
  begin
     id 12 
     name upperback
     direction 0.00733149 0.999856 -0.0152913   
     length 2.01385   
     axis 0 0 0   XYZ
    dof rx ry rz
    limits (-20.0 45.0)
           (-30.0 30.0)
           (-30.0 30.0)
  end
  begin
     id 13 
     name thorax
     direction 0.0026304 0.999318 0.036841   
     length 2.03734   
     axis 0 0 0   XYZ
    dof rx ry rz
    limits (-20.0 45.0)
           (-30.0 30.0)
           (-30.0 30.0)
  end
  begin
     id 14 
     name lowerneck
     direction 0.0293154 0.998757 0.0403082   
     length 1.65303   
     axis 0 0 0   XYZ
    dof rx ry rz
    limits (-20.0 45.0)
           (-30.0 30.0)
           (-30.0 30.0)
  end
  begin
     id 15 
     name upperneck
     direction -0.0376619 0.998184 -0.0470083   
     length 1.60926   
     axis 0 0 0   XYZ
    dof rx ry rz
    limits (-20.0 45.0)
           (-30.0 30.0)
           (-30.0 30.0)
  end
  begin
     id 16
     name head
     direction -0.0170133 0.999635 -0.0209778  
     length 1.73625  
     axis 0 0 0   XYZ
    dof rx ry rz
    limits (-20.0 45.0)
           (-30.0 30.0)
           (-30.0 30.0)
  end
  begin
     id 17 
     name lclavicle
     direction 0.919857 0.39181 -0.0186333  
     length 3.75313  
     axis 0 0 0   XYZ
    dof ry rz
    limits (-20.0 10.0)
           (0.0 20.0)
  end
  begin
     id 18 
     name lhumerus
     direction 1 -4.48988e-011 1.44029e-027   
     length 5.49313   
     axis 180 -30 -90   XYZ
    dof rx ry rz
    limits (-60.0 90.0)
           (-90.0 90.0)
           (-90.0 90.0)
  end
  begin
     id 19
     name lradius
     direction 1 -4.48924e-011 7.46281e-027   
     length 3.29037   
     axis 180 -30 -90   XYZ
    dof rx
    limits (-10.0 170.0)
  end
  begin
     id 20
     name lwrist
     direction 1 -4.48955e-011 2.19879e-026   
     length 1.64519   
     axis -1.34358e-014 90 90   XYZ
    dof ry
    limits (-180.0 0.0)
 end
  begin
     id 21 
     name lhand
     direction 1 -4.48978e-011 4.39747e-026   
     length 0.729656   
     axis -2.80598e-014 90 90   XYZ
    dof rx rz
    limits (-90.0 90.0)
           (-45.0 45.0)
  end
  begin
     id 22 
     name lfingers
     direction 1 -4.49071e-011 8.79411e-026   
     length 0.588268   
     axis -5.61193e-014 90 90   XYZ
    dof rx
    limits (0.0 90.0)
  end
  begin
     id 23
     name lthumb
     direction 0.707107 -6.34817e-011 0.707107   
     length 0.844638   
     axis -90 45 -9.86923e-015   XYZ
    dof rx rz
    limits (-45.0 45.0)
           (-45.0 45.0)
  end
  begin
     id 24 
     name rclavicle
     direction -0.919898 0.388279 0.0550233   
     length 3.7171  
     axis 0 0 0   XYZ 
    dof ry rz
    limits (-10.0 20.0)
           (-20.0 0.0)
  end
  begin
     id 25 
     name rhumerus
     direction -1 -4.48968e-011 9.98372e-028  
     length 5.23684   
     axis 180 30 90   XYZ
    dof rx ry rz
    limits (-90.0 60.0)
           (-90.0 90.0)
           (-90.0 90.0)
  end
  begin
     id 26 
     name rradius
     direction -1 -4.48956e-011 1.01023e-026   
     length 3.38251   
     axis 180 30 90   XYZ
    dof rx
    limits (-10.0 170.0)
  end
  begin
     id 27 
     name rwrist
     direction -1 -4.4892e-011 2.19886e-026   
     length 1.69126   
     axis -1.34358e-014 -90 -90   XYZ
    dof ry
    limits (-180.0 0.0)
  end
  begin
     id 28
     name rhand
     direction -1 -4.49024e-011 4.39727e-026   
     length 0.691454   
     axis -2.80598e-014 -90 -90   XYZ
    dof rx rz
    limits (-90.0 90.0)
           (-45.0 45.0)
  end
  begin
     id 29
     name rfingers
     direction -1 -4.49097e-011 8.79388e-026   
     length 0.557468   
     axis -5.61193e-014 -90 -90   XYZ
    dof rx
    limits (0.0 90.0)
  end
  begin
     id 30
     name rthumb
     direction -0.707107 -6.34938e-011 0.707107   
     length 0.800416   
     axis -90 -45 9.86923e-015   XYZ
    dof rx rz
    limits (-45.0 45.0)
           (-45.0 45.0)
  end
:hierarchy
  begin
    root lhipjoint rhipjoint lowerback
    lhipjoint lfemur
    lfemur ltibia
    ltibia lfoot
    lfoot ltoes
    rhipjoint rfemur
    rfemur rtibia
    rtibia rfoot
    rfoot rtoes
    lowerback upperback
    upperback thorax
    thorax lowerneck lclavicle rclavicle
    lowerneck upperneck
    upperneck head
    lclavicle lhumerus
    lhumerus lradius
    lradius lwrist
    lwrist lhand lthumb
    lhand lfingers
    rclavicle rhumerus
    rhumerus rradius
    rradius rwrist
    rwrist rhand rthumb
    rhand rfingers
  end

#!OML:ASF H:\BabyWalks\Project 1\Capture day 1\Session 1\baby.ASF
:FULLY-SPECIFIED
:DEGREES
190
root -28.9675 17.4053 -2.06945 -29.3301 82.1882 -38.0553
lowerback 17.8038 2.28693 -6.60135
upperback 6.86513 2.2179 -2.68323
thorax -2.69955 1.22485 0.442661
lowerneck -3.45709 1.29852 3.43809
upperneck 0.886998 1.57823 3.49296
head 0.839821 0.87002 0.530082
rclavicle -5.32743e-014 -7.95139e-015
rhumerus -49.6473 23.4297 -84.3602
rradius 47.8111
rwrist -7.28171
rhand -4.67137 -16.5179
rfingers 7.12502
rthumb 21.1091 -45.3888
lclavicle -5.32743e-014 -7.95139e-015
lhumerus -38.5576 -3.40498 74.9988
lradius 48.692
lwrist 1.87011
lhand -0.389396 11.5362
lfingers 7.12502
lthumb 25.2173 39.89
rfemur -3.69644 -7.79083 24.4326
rtibia 32.2167
rfoot -23.5359 -18.3611
rtoes -8.38551
lfemur -24.7005 5.18255 -16.1836
ltibia 42.0245
lfoot -25.3894 1.77151
ltoes -8.6529
191
root -28.8977 17.4137 -2.0781 -27.998 82.1756 -36.7465
lowerback 17.9677 2.31428 -6.86365
upperback 6.92052 2.20377 -2.77087
thorax -2.72654 1.21919 0.494226
lowerneck -3.46729 1.30164 3.49368
upperneck 0.753338 1.58622 3.49242
head 0.800169 0.871618 0.520089
rclavicle -3.18055e-015 1.90833e-014
rhumerus -49.4497 23.4051 -84.1217
rradius 47.7775
rwrist -7.39121
rhand -4.66084 -16.5358
rfingers 7.12502
rthumb 21.1193 -45.4056
lclavicle -3.18055e-015 1.90833e-014
lhumerus -38.2665 -3.26245 74.8339
lradius 49.0468
lwrist 1.9294
lhand -0.700374 11.4723
lfingers 7.12502
lthumb 24.9194 39.8677
rfemur -4.98098 -8.3744 24.1233
rtibia 34.7808
rfoot -23.252 -17.5938
rtoes -8.50832
lfemur -24.2632 5.18726 -16.3923
ltibia 41.659
lfoot -25.4993 1.88414
ltoes -8.68751
192
root -28.8264 17.4237 -2.08568 -26.6854 82.1728 -35.4534
lowerback 18.1227 2.3293 -7.13499
upperback 6.9795 2.17283 -2.84606
thorax -2.74417 1.2047 0.567827
lowerneck -3.46903 1.31356 3.55734
upperneck 0.628916 1.60578 3.47801
head 0.762167 0.878889 0.504734
rclavicle -8.74653e-015 1.59028e-015
rhumerus -49.2252 23.3677 -83.8678
rradius 47.7438
rwrist -7.51785
rhand -4.69441 -16.5626
rfingers 7.12502
rthumb 21.087 -45.436
lclavicle -8.74653e-015 1.59028e-015
lhumerus -37.9927 -3.13098 74.6844
lradius 49.4312
lwrist 2.02793
lhand -1.03673 11.443
lfingers 7.12502
lthumb 24.597 39.8828
rfemur -6.29324 -8.88171 23.831
rtibia 37.2647
rfoot -22.9854 -16.7877
rtoes -8.64625
lfemur -23.8009 5.17915 -16.6045
ltibia 41.2589
lfoot -25.61 2.00024
ltoes -8.72716
193
root -28.7536 17.4346 -2.09227 -25.4633 82.186 -34.2497
lowerback 18.2718 2.32809 -7.40217
upperback 7.03885 2.12157 -2.90865
thorax -2.75696 1.17985 0.65691
lowerneck -3.45732 1.32917 3.62658
upperneck 0.512229 1.63042 3.4542
head 0.724483 0.888559 0.485636
rclavicle 3.18055e-015 4.77083e-015
rhumerus -48.9822 23.306 -83.6009
rradius 47.7094
rwrist -7.65071
rhand -4.76647 -16.6026
rfingers 7.12502
rthumb 21.0178 -45.4837
lclavicle 3.18055e-015 4.77083e-015
lhumerus -37.733 -3.02291 74.5495
lradius 49.8368
lwrist 2.16759
lhand -1.3959 11.4108
lfingers 7.12502
lthumb 24.2527 39.8969
rfemur -7.61863 -9.3184 23.5632
rtibia 39.6263
rfoot -22.7854 -15.9445
rtoes -8.76254
lfemur -23.3231 5.15213 -16.8139
ltibia 40.8319
lfoot -25.7162 2.11401
ltoes -8.72053
194
root -28.6795 17.4445 -2.0979 -24.3684 82.2197 -33.1776
lowerback 18.4107 2.31156 -7.65935
upperback 7.09695 2.05249 -2.95553
thorax -2.76425 1.14577 0.761262
lowerneck -3.42983 1.34694 3.69651
upperneck 0.401901 1.65845 3.42524
head 0.686246 0.899772 0.46484
rclavicle 5.56597e-015 3.18055e-015
rhumerus -48.7307 23.2123 -83.3184
rradius 47.6795
rwrist -7.79068
rhand -4.87618 -16.6462
rfingers 7.12502
rthumb 20.9124 -45.539
lclavicle 5.56597e-015 3.18055e-015
lhumerus -37.4815 -2.94961 74.4333
lradius 50.2471
lwrist 2.33873
lhand -1.76471 11.3477
lfingers 7.12502
lthumb 23.8991 39.8806
rfemur -8.94002 -9.69222 23.3256
rtibia 41.8229
rfoot -22.6733 -15.0935
rtoes -8.93145
lfemur -22.8466 5.10064 -17.0164
ltibia 40.3945
lfoot -25.8277 2.22711
ltoes -8.70028
195
root -28.6035 17.4542 -2.10255 -23.4025 82.2674 -32.2415
lowerback 18.5356 2.28158 -7.89768
upperback 7.15232 1.9697 -2.9891
thorax -2.76571 1.10456 0.872708
lowerneck -3.38777 1.36367 3.77128
upperneck 0.298998 1.68533 3.38952
head 0.64805 0.910292 0.441126
rclavicle 1.27222e-014 -1.11319e-014
rhumerus -48.4833 23.0831 -83.0282
rradius 47.6606
rwrist -7.93534
rhand -5.02958 -16.6935
rfingers 7.12502
rthumb 20.765 -45.6024
lclavicle 1.27222e-014 -1.11319e-014
lhumerus -37.2382 -2.92188 74.3332
lradius 50.662
lwrist 2.53642
lhand -2.12903 11.2916
lfingers 7.12502
lthumb 23.5496 39.8699
rfemur -10.2574 -10.0031 23.1236
rtibia 43.8181
rfoot -22.627 -14.2992
rtoes -9.15855
lfemur -22.3766 5.03083 -17.2067
ltibia 39.9634
lfoot -25.9393 2.33994
ltoes -8.61169
196
root -28.5257 17.4635 -2.10625 -22.6278 82.3285 -31.5076
lowerback 18.6502 2.2383 -8.10672
upperback 7.20223 1.87458 -3.00649
thorax -2.76612 1.05706 0.988066
lowerneck -3.33702 1.37517 3.83916
upperneck 0.209824 1.70527 3.35858
head 0.612657 0.917547 0.419939
rclavicle 9.54166e-015 -1.59028e-015
rhumerus -48.2482 22.9163 -82.7304
rradius 47.6557
rwrist -8.08215
rhand -5.21523 -16.7414
rfingers 7.12502
rthumb 20.5866 -45.6697
lclavicle 9.54166e-015 -1.59028e-015
lhumerus -37.0025 -2.94682 74.2497
lradius 51.0783
lwrist 2.75261
lhand -2.47764 11.2304
lfingers 7.12502
lthumb 23.2152 39.8512
rfemur -11.5567 -10.255 22.9665
rtibia 45.5633
rfoot -22.6224 -13.6014
rtoes -9.36605
lfemur -21.9098 4.93717 -17.3757
ltibia 39.5161
lfoot -26.0195 2.46244
ltoes -8.47926
